<svg width="18" height="18" viewBox="0 0 18 18" fill="none" xmlns="http://www.w3.org/2000/svg">
<path fill-rule="evenodd" clip-rule="evenodd" d="M6.5 0.25C5.46447 0.25 4.625 1.08947 4.625 2.125V2.75H2.125H1.4406H0.875C0.529822 2.75 0.25 3.02982 0.25 3.375C0.25 3.72018 0.529822 4 0.875 4H1.55424L2.54587 14.9079C2.6922 16.5175 4.04178 17.75 5.65804 17.75H12.342C13.9582 17.75 15.3078 16.5175 15.4541 14.9079L16.4458 4H17.125C17.4702 4 17.75 3.72018 17.75 3.375C17.75 3.02982 17.4702 2.75 17.125 2.75L16.5594 2.75H15.875H13.375V2.125C13.375 1.08947 12.5355 0.25 11.5 0.25H6.5ZM12.125 2.75V2.125C12.125 1.77982 11.8452 1.5 11.5 1.5H6.5C6.15482 1.5 5.875 1.77982 5.875 2.125V2.75H12.125ZM5.25 4H2.8094L3.79074 14.7948C3.87853 15.7605 4.68828 16.5 5.65804 16.5H12.342C13.3117 16.5 14.1215 15.7605 14.2093 14.7948L15.1906 4H12.75H5.25ZM7.75 6.5C7.75 6.15482 7.47018 5.875 7.125 5.875C6.77982 5.875 6.5 6.15482 6.5 6.5V12.75C6.5 13.0952 6.77982 13.375 7.125 13.375C7.47018 13.375 7.75 13.0952 7.75 12.75V6.5ZM10.875 5.875C11.2202 5.875 11.5 6.15482 11.5 6.5V12.75C11.5 13.0952 11.2202 13.375 10.875 13.375C10.5298 13.375 10.25 13.0952 10.25 12.75V6.5C10.25 6.15482 10.5298 5.875 10.875 5.875Z" fill="#222222"/>
</svg>
