<svg width="14" height="18" viewBox="0 0 14 18" fill="none" xmlns="http://www.w3.org/2000/svg">
<path fill-rule="evenodd" clip-rule="evenodd" d="M3.25 2.12502C2.21447 2.12502 1.375 2.96448 1.375 4.00002V14C1.375 15.0356 2.21447 15.875 3.25 15.875H10.75C11.7855 15.875 12.625 15.0356 12.625 14V6.7589L7.99112 2.12502H3.25ZM0.125 4.00002C0.125 2.27413 1.52411 0.875018 3.25 0.875018H8.25C8.41576 0.875018 8.57473 0.940866 8.69194 1.05808L13.6919 6.05808C13.8092 6.17529 13.875 6.33426 13.875 6.50002V14C13.875 15.7259 12.4759 17.125 10.75 17.125H3.25C1.52411 17.125 0.125 15.7259 0.125 14V4.00002Z" fill="#717171"/>
<path fill-rule="evenodd" clip-rule="evenodd" d="M8.01082 0.922594C8.24437 0.825855 8.51319 0.879328 8.69194 1.05808L13.6919 6.05808C13.8707 6.23683 13.9242 6.50565 13.8274 6.7392C13.7307 6.97274 13.5028 7.12502 13.25 7.12502H10.75C9.02411 7.12502 7.625 5.72591 7.625 4.00002V1.50002C7.625 1.24723 7.77728 1.01933 8.01082 0.922594ZM8.875 3.0089V4.00002C8.875 5.03555 9.71447 5.87502 10.75 5.87502H11.7411L8.875 3.0089Z" fill="#717171"/>
</svg>
