<svg width="20" height="20" viewBox="0 0 20 20" fill="none" xmlns="http://www.w3.org/2000/svg">
<path fill-rule="evenodd" clip-rule="evenodd" d="M4.39894 11.7033C4.42812 11.6012 4.48285 11.5082 4.55795 11.4331L12.3705 3.62055C13.4775 2.51353 15.2723 2.51353 16.3793 3.62055C17.4864 4.72757 17.4864 6.52241 16.3793 7.62943L8.56683 15.4419C8.49173 15.517 8.39872 15.5718 8.29659 15.6009L3.92159 16.8509C3.70335 16.9133 3.46845 16.8524 3.30795 16.6919C3.14745 16.5314 3.08658 16.2965 3.14894 16.0783L4.39894 11.7033ZM5.55635 12.2024L4.65991 15.34L7.79747 14.4435L13.8036 8.43744L11.5624 6.19633L5.55635 12.2024ZM12.4463 5.31244L14.6874 7.55356L15.4955 6.74555C16.1143 6.12668 16.1143 5.1233 15.4955 4.50443C14.8766 3.88557 13.8732 3.88557 13.2543 4.50443L12.4463 5.31244Z" fill="#717171"/>
<path d="M9.37495 16.875C9.37495 16.5298 9.65477 16.25 9.99995 16.25H16.25C16.5951 16.25 16.875 16.5298 16.875 16.875C16.875 17.2202 16.5951 17.5 16.25 17.5H9.99995C9.65477 17.5 9.37495 17.2202 9.37495 16.875Z" fill="#717171"/>
</svg>
