<svg width="20" height="21" viewBox="0 0 20 21" fill="none" xmlns="http://www.w3.org/2000/svg">
<path d="M16.4331 3.18306C16.6771 2.93898 17.0729 2.93898 17.3169 3.18306C17.561 3.42714 17.561 3.82286 17.3169 4.06694L10.8839 10.5L17.3169 16.9331C17.561 17.1771 17.561 17.5729 17.3169 17.8169C17.0729 18.061 16.6771 18.061 16.4331 17.8169L10 11.3839L3.56694 17.8169C3.32286 18.061 2.92713 18.061 2.68305 17.8169C2.43898 17.5729 2.43898 17.1771 2.68305 16.9331L9.11611 10.5L2.68306 4.06694C2.43898 3.82286 2.43898 3.42714 2.68306 3.18306C2.92713 2.93898 3.32286 2.93898 3.56694 3.18306L10 9.61612L16.4331 3.18306Z" fill="#222222"/>
</svg>
