<svg width="20" height="20" viewBox="0 0 20 20" fill="none" xmlns="http://www.w3.org/2000/svg">
<path d="M3.75 11.25C4.44036 11.25 5.00001 10.6904 5.00001 10C5.00001 9.30965 4.44036 8.75 3.75 8.75C3.05965 8.75 2.5 9.30965 2.5 10C2.5 10.6904 3.05965 11.25 3.75 11.25Z" fill="#717171"/>
<path d="M16.25 11.25C16.9404 11.25 17.5 10.6904 17.5 10C17.5 9.30965 16.9404 8.75 16.25 8.75C15.5597 8.75 15 9.30965 15 10C15 10.6904 15.5597 11.25 16.25 11.25Z" fill="#717171"/>
<path d="M11.25 10C11.25 10.6904 10.6904 11.25 10 11.25C9.30965 11.25 8.75 10.6904 8.75 10C8.75 9.30965 9.30965 8.75 10 8.75C10.6904 8.75 11.25 9.30965 11.25 10Z" fill="#717171"/>
</svg>
