<svg width="90" height="106" viewBox="0 0 90 106" fill="none" xmlns="http://www.w3.org/2000/svg">
<path d="M0 15.5C0 7.21573 6.71573 0.5 15 0.5H60L90 30.5V90.5C90 98.7843 83.2843 105.5 75 105.5H15C6.71573 105.5 0 98.7843 0 90.5V15.5Z" fill="#EA4336"/>
<path d="M39.8011 38C36.8145 38 34.4059 40.4567 34.4059 43.3952C34.4059 47.1045 36.4773 51.6808 38.645 56.0163C36.959 61.3152 35.0321 66.9996 32.5753 71.7686C27.5654 73.7436 23.0855 75.1887 20.3878 77.3564C20.3397 77.4046 20.2915 77.4529 20.2915 77.5011C19.328 78.5127 18.75 79.8614 18.75 81.3548C18.75 84.3414 21.2067 86.75 24.1452 86.75C25.5904 86.75 26.9874 86.2203 27.999 85.1605C28.0472 85.1124 28.0472 85.1123 28.0954 85.0641C30.0704 82.7037 32.4309 78.4163 34.5022 74.4662C39.3194 72.5875 44.3293 70.6608 49.1946 69.5046C52.7594 72.3468 57.8656 74.2254 62.1048 74.2254C65.0914 74.2254 67.5 71.7687 67.5 68.8302C67.5 65.8435 65.0432 63.4349 62.1048 63.4349C58.7327 63.4349 53.8192 64.6393 50.0618 65.8918C47.0269 63.0496 44.2329 59.4364 42.2097 55.679C43.6549 51.2472 45.3409 46.8154 45.3409 43.3952C45.1964 40.4567 42.7396 38 39.8011 38ZM39.8011 41.2757C41.0054 41.2757 41.9688 42.2392 41.9688 43.4435C41.9688 45.0813 41.1018 48.068 40.0901 51.2955C38.7413 48.1643 37.6334 45.1776 37.6334 43.4435C37.6334 42.191 38.5486 41.2757 39.8011 41.2757ZM40.7164 59.822C42.3542 62.4233 44.2329 64.8318 46.3525 66.9514C43.125 67.8185 39.9939 68.9745 36.9108 70.1306C38.4042 66.7586 39.5603 63.2422 40.7164 59.822ZM62.0084 66.7106C63.2127 66.7106 64.1761 67.6741 64.1761 68.8784C64.1761 70.0827 63.2127 71.0459 62.0084 71.0459C59.5516 71.0459 56.0832 69.938 53.3374 68.3965C56.5168 67.5294 59.9852 66.7106 62.0084 66.7106ZM29.6368 76.4414C28.0953 79.139 26.602 81.6921 25.5423 82.9927C25.1569 83.3299 24.6752 83.5708 24.0489 83.5708C22.8446 83.5708 21.8811 82.6073 21.8811 81.403C21.8811 80.8249 22.1221 80.2469 22.4593 79.9097C23.7599 78.8499 26.5057 77.6939 29.6368 76.4414Z" fill="#FCFCFC"/>
<g style="mix-blend-mode:multiply" opacity="0.3">
<path d="M90 53V30.5L60 0.5V15.2335C60 20.2063 61.9754 24.9754 65.4917 28.4917L90 53Z" fill="black"/>
</g>
<path d="M60 0.5L90 30.5H75C66.7157 30.5 60 23.7843 60 15.5V0.5Z" fill="#F9928A"/>
</svg>
